<?xml version="1.0" standalone="no"?>
<!DOCTYPE svg PUBLIC "-//W3C//DTD SVG 20010904//EN"
 "http://www.w3.org/TR/2001/REC-SVG-20010904/DTD/svg10.dtd">
<svg version="1.0" xmlns="http://www.w3.org/2000/svg"
 width="749.000000pt" height="749.000000pt" viewBox="0 0 749.000000 749.000000"
 preserveAspectRatio="xMidYMid meet">
<metadata>
Created by potrace 1.11, written by Peter Selinger 2001-2013
</metadata>
<g transform="translate(0.000000,749.000000) scale(0.100000,-0.100000)"
fill="#000000" stroke="none">
<path d="M1664 6828 c-129 -14 -233 -99 -279 -228 -15 -41 -16 -308 -16 -2855
0 -3106 -6 -2846 63 -2945 40 -59 77 -88 150 -118 l61 -24 2101 0 c1908 0
2105 2 2146 16 68 25 133 73 169 126 68 99 63 -70 63 2220 0 1141 -1 2082 -1
2092 -1 15 -51 16 -638 17 -401 0 -658 4 -693 11 -123 23 -260 117 -317 219
-53 94 -52 92 -53 804 0 363 -2 663 -5 665 -7 8 -2684 8 -2751 0z m2496 -2321
c51 -26 62 -56 62 -171 1 -121 -12 -152 -69 -171 -19 -6 -398 -10 -1055 -10
-967 0 -1026 1 -1052 18 -38 26 -47 58 -47 172 1 107 12 137 61 161 32 17
2068 17 2100 1z m1277 -845 c41 -23 53 -63 53 -176 0 -103 -1 -107 -29 -138
l-29 -33 -1687 0 -1687 0 -29 33 c-22 25 -29 42 -30 77 0 25 -1 64 -1 88 -2
97 19 140 76 155 14 4 772 7 1683 7 1301 -1 1663 -3 1680 -13z m-2 -847 c45
-22 55 -51 55 -166 0 -114 -12 -149 -59 -169 -40 -16 -3331 -18 -3373 -1 -44
17 -59 59 -59 170 0 121 6 140 56 169 15 8 445 11 1683 12 1482 0 1668 -2
1697 -15z m2 -843 c45 -25 53 -50 53 -159 0 -116 -8 -145 -47 -170 -26 -17
-105 -18 -1692 -18 -1821 0 -1710 -4 -1738 56 -11 22 -17 128 -14 216 1 29 46
81 74 85 12 2 769 3 1682 3 1311 0 1665 -3 1682 -13z"/>
<path d="M4655 6173 c1 -736 -3 -698 73 -756 72 -55 82 -56 760 -55 364 0 622
4 620 9 -2 7 -1449 1459 -1453 1459 -1 0 -1 -296 0 -657z"/>
</g>
</svg>
